<?xml version="1.0" standalone="no"?>
<!DOCTYPE svg PUBLIC "-//W3C//DTD SVG 20010904//EN"
 "http://www.w3.org/TR/2001/REC-SVG-20010904/DTD/svg10.dtd">
<svg version="1.0" xmlns="http://www.w3.org/2000/svg"
 width="2048.000000pt" height="419.000000pt" viewBox="0 0 2048.000000 419.000000"
 preserveAspectRatio="xMidYMid meet">

<g transform="translate(0.000000,419.000000) scale(0.100000,-0.100000)"
fill="#000000" stroke="none">
<path d="M17025 4137 c-165 -87 -393 -242 -522 -355 l-33 -28 45 -61 c44 -60
46 -61 101 -65 32 -3 62 -11 71 -21 15 -15 15 -18 -2 -37 -19 -21 -19 -22 2
-38 18 -14 22 -25 19 -59 -2 -33 0 -43 11 -43 8 0 30 -15 49 -34 38 -38 43
-70 19 -115 -15 -31 -33 -41 -69 -41 -22 0 -24 -6 -30 -76 -9 -101 -44 -208
-97 -296 -32 -54 -39 -73 -28 -76 15 -5 230 -226 318 -327 66 -75 162 -218
206 -305 37 -73 98 -244 109 -302 6 -33 10 -38 35 -38 34 0 61 -28 61 -63 0
-28 -31 -67 -53 -67 -8 0 -18 -23 -25 -57 -14 -68 -64 -141 -121 -178 -23 -16
-64 -30 -105 -36 -100 -16 -203 2 -390 66 -88 30 -174 55 -192 55 -18 0 -39 7
-47 15 -13 13 -16 13 -21 -1 -3 -8 -10 -12 -16 -9 -6 4 -8 11 -5 16 8 12 -2
12 -25 -1 -26 -14 -37 7 -14 25 33 25 0 16 -38 -10 -41 -28 -58 -31 -58 -12 0
7 19 23 43 35 l42 22 -65 -2 c-55 -3 -65 0 -68 15 -4 21 24 34 47 21 9 -5 32
-7 51 -3 27 5 29 7 10 8 -34 2 -54 16 -45 31 10 16 90 6 123 -16 14 -9 43 -18
66 -19 22 -2 90 -17 150 -35 141 -41 292 -70 364 -70 170 0 206 127 107 376
-108 271 -218 449 -330 533 -45 34 -61 56 -104 143 -28 57 -51 112 -51 123 -1
18 -2 18 -11 3 -5 -10 -25 -59 -44 -110 -128 -348 -273 -678 -298 -678 -9 0
-28 38 -52 103 -49 134 -231 503 -251 511 -14 5 -15 1 -11 -26 3 -18 16 -109
27 -203 l21 -170 -29 -115 c-44 -171 -165 -413 -263 -524 -31 -36 -34 -45 -36
-110 -1 -39 -3 -87 -4 -106 -2 -19 -1 -42 2 -50 3 -13 -18 -15 -163 -11 -111
2 -189 -1 -232 -10 -48 -9 -68 -10 -78 -1 -8 6 -19 7 -28 2 -11 -7 -12 -11 0
-24 7 -9 10 -19 7 -22 -3 -3 -10 4 -17 15 -7 14 -21 21 -40 21 -16 0 -32 5
-35 10 -3 6 -15 10 -27 10 -17 0 -18 -3 -8 -15 21 -26 -16 -30 -55 -6 -33 19
-51 21 -216 21 -138 0 -179 -3 -179 -13 0 -10 -24 -11 -112 -4 -102 7 -416 -4
-553 -19 -45 -5 -51 -4 -60 17 -22 49 -95 39 -105 -15 -5 -26 -13 -31 -90 -57
-47 -16 -101 -38 -121 -49 -20 -11 -38 -18 -40 -15 -3 2 -105 9 -228 14 -123
6 -226 12 -228 15 -3 2 1 14 7 26 11 21 15 21 173 16 116 -4 153 -3 130 4 -39
13 -47 24 -28 40 18 15 20 61 3 78 -7 7 -27 12 -45 12 -27 0 -36 -5 -45 -27
-7 -16 -13 -29 -13 -31 -1 -1 -15 4 -31 12 -18 10 -77 17 -162 21 l-132 7 0
-56 0 -56 60 0 c44 0 60 -4 60 -14 0 -34 -26 -39 -172 -31 l-143 7 -22 -58
c-13 -32 -20 -60 -17 -63 3 -3 66 -8 140 -9 104 -3 134 -7 134 -17 0 -24 -22
-28 -139 -26 l-116 2 -22 -57 c-13 -32 -21 -59 -20 -60 2 -2 58 -6 124 -10
l122 -7 -5 -61 c-3 -35 3 -137 15 -239 12 -98 21 -180 21 -182 0 -3 7 -5 16
-5 10 0 14 6 10 18 -12 44 -37 325 -34 392 l3 75 285 -4 c157 -2 288 -5 292
-7 4 -3 0 -20 -8 -39 -29 -71 9 -82 135 -40 41 14 100 29 130 34 94 17 536 42
706 41 88 0 183 0 210 1 28 1 226 -1 441 -6 l391 -8 0 -131 c0 -193 40 -382
109 -519 13 -27 24 -51 24 -53 0 -2 -13 -4 -30 -4 -20 0 -30 -5 -30 -15 0 -12
14 -15 66 -15 36 0 74 5 85 10 19 11 19 12 -6 53 -110 178 -143 373 -98 587
l18 85 90 3 90 2 44 -106 c24 -58 73 -158 109 -221 53 -96 63 -121 58 -147 -5
-25 -17 -105 -40 -266 -1 -9 -6 -21 -10 -28 -11 -18 -2 -25 22 -18 27 9 47 65
27 73 -22 8 -18 48 12 137 l27 79 18 -24 c9 -13 46 -63 82 -111 45 -62 63 -93
59 -108 -4 -16 -1 -20 21 -20 15 0 29 -7 32 -15 5 -13 117 -15 919 -15 l912 0
9 32 c19 64 108 62 120 -2 l7 -30 1158 0 1159 0 0 623 0 623 -32 9 c-64 19
-60 116 5 123 l27 3 0 1039 c0 1030 0 1038 -20 1033 -33 -9 -66 5 -78 32 -23
50 10 115 57 115 23 1 16 10 -64 88 -173 167 -406 335 -616 446 l-106 56 -596
0 -596 0 14 -26 c28 -55 -23 -116 -80 -94 -30 11 -42 53 -27 92 l10 28 -626 0
-627 0 -100 -53z m2973 -667 c46 -43 14 -140 -45 -140 -60 0 -85 89 -38 135
29 30 54 32 83 5z m-1344 -15 c31 -31 27 -84 -8 -107 -37 -25 -96 7 -96 51 0
60 65 95 104 56z m-1342 -102 c39 -35 8 -113 -45 -113 -52 0 -79 76 -41 114
20 21 63 20 86 -1z m2110 -340 c39 -35 8 -113 -44 -113 -29 0 -42 9 -57 37
-12 24 0 71 22 85 20 13 60 9 79 -9z m628 -161 c25 -31 25 -43 -1 -76 -28 -35
-80 -36 -114 -1 -27 26 -31 46 -14 76 22 43 96 43 129 1z m-3268 -79 c22 -20
23 -70 1 -95 -31 -35 -101 -15 -104 30 -5 69 56 108 103 65z m2072 -135 c55
-77 -46 -175 -104 -101 -23 30 -20 74 8 106 22 25 77 22 96 -5z m-1354 -8 c20
-20 26 -65 12 -86 -15 -23 -50 -34 -77 -24 -46 17 -53 86 -12 115 29 20 53 19
77 -5z m2903 -238 c41 -36 -6 -121 -61 -107 -68 16 -70 105 -2 127 19 6 40 -1
63 -20z m-2133 -202 c11 -11 20 -31 20 -44 0 -64 -82 -93 -116 -41 -43 66 41
140 96 85z m-2085 -330 c0 -16 -6 -26 -18 -28 -19 -4 -32 20 -23 44 9 25 41
13 41 -16z m2 -96 c3 -8 -2 -23 -11 -32 -14 -15 -18 -15 -31 -1 -9 9 -13 23
-9 32 8 21 43 22 51 1z m3703 -124 c40 -40 11 -110 -45 -110 -32 0 -65 33 -65
65 0 32 33 65 65 65 14 0 34 -9 45 -20z m-3769 -253 c-8 -8 -11 -5 -11 9 0 27
14 41 18 19 2 -9 -1 -22 -7 -28z m2423 -39 c55 -77 -46 -175 -104 -101 -23 30
-20 74 8 106 22 25 77 22 96 -5z m-2974 -233 c0 -16 -34 -54 -53 -59 -12 -3
-237 -6 -501 -7 -514 -2 -495 -4 -496 49 l0 22 525 0 c289 0 525 -2 525 -5z
m2110 -25 c21 -21 26 -55 11 -79 -6 -10 -17 -2 -42 32 -23 31 -41 46 -57 47
-13 0 -20 4 -17 10 11 18 84 11 105 -10z m190 -72 c39 -42 14 -108 -42 -108
-40 0 -68 25 -68 62 0 60 70 89 110 46z m-4492 -44 c68 -5 73 -7 70 -27 -2
-14 -10 -22 -23 -22 -128 0 -532 18 -538 24 -5 5 -2 15 6 22 11 11 54 14 213
12 109 -2 232 -6 272 -9z m1675 -11 c229 -3 417 -10 417 -14 0 -4 -5 -19 -11
-32 l-11 -25 -282 -7 c-154 -3 -355 -5 -446 -3 l-165 3 -3 49 -3 49 43 -7 c24
-3 231 -9 461 -13z m631 -29 c14 -36 7 -44 -39 -44 -46 0 -53 7 -35 41 13 24
65 26 74 3z m3868 -181 c39 -35 8 -113 -44 -113 -29 0 -42 9 -57 38 -32 61 49
122 101 75z m-3052 -113 c40 -40 11 -112 -45 -112 -32 0 -65 32 -65 64 0 25
44 68 70 68 11 0 29 -9 40 -20z m1668 -36 c45 -31 18 -114 -38 -114 -38 0 -61
21 -62 58 -2 60 51 90 100 56z m-944 -205 c54 -42 24 -109 -49 -109 -67 0
-102 56 -64 103 26 34 75 36 113 6z m1619 -131 c27 -22 31 -61 7 -91 -38 -48
-110 -25 -110 35 0 57 59 89 103 56z m1491 -4 c21 -20 20 -73 -1 -96 -31 -34
-97 -14 -103 32 -7 50 16 80 60 80 16 0 36 -7 44 -16z"/>
<path d="M16626 3506 c7 -19 38 -22 32 -3 -3 6 -12 13 -21 15 -12 2 -15 -1
-11 -12z"/>
<path d="M16212 3471 c-25 -15 -9 -46 24 -49 38 -4 55 25 28 45 -21 15 -34 16
-52 4z"/>
<path d="M15707 3420 c-5 -21 17 -40 47 -40 26 0 20 47 -6 54 -33 9 -35 8 -41
-14z"/>
<path d="M3338 3423 c-10 -2 -18 -8 -18 -12 0 -12 418 -731 425 -731 1 0 -71
168 -160 373 l-162 372 -34 2 c-19 0 -42 -1 -51 -4z"/>
<path d="M4542 3358 c-17 -40 -65 -152 -107 -248 -43 -96 -90 -204 -105 -240
-26 -62 -76 -174 -88 -195 -3 -7 -1 -7 6 0 5 6 83 136 172 290 90 154 184 316
211 360 43 72 47 81 32 93 -9 6 -33 12 -54 12 -36 0 -37 -1 -67 -72z"/>
<path d="M3660 3404 c0 -4 34 -120 76 -258 42 -138 86 -285 98 -326 28 -100
32 -67 7 67 -11 59 -34 189 -52 288 -17 99 -37 185 -43 192 -14 15 -86 46 -86
37z"/>
<path d="M4268 3379 c-25 -12 -38 -27 -38 -39 0 -21 -58 -356 -90 -520 -19
-101 -19 -131 0 -58 7 23 27 90 46 148 41 131 144 476 144 484 0 11 -25 5 -62
-15z"/>
<path d="M3072 3261 l-33 -29 118 -123 c65 -68 152 -160 194 -204 211 -221
291 -299 259 -253 -18 26 -40 55 -49 65 -10 10 -111 143 -225 296 -115 152
-214 277 -220 277 -6 -1 -26 -14 -44 -29z"/>
<path d="M4657 3008 c-113 -150 -231 -307 -262 -348 -56 -74 -56 -74 62 45
171 174 467 485 477 502 6 11 -2 23 -25 44 -19 15 -37 28 -40 29 -4 0 -99
-123 -212 -272z"/>
<path d="M3977 3008 c4 -73 8 -177 7 -230 -1 -92 -2 -99 -27 -122 -22 -20 -27
-34 -27 -70 l0 -45 -140 -102 c-163 -120 -174 -139 -80 -139 l60 0 0 -90 0
-90 -35 0 c-35 0 -35 0 -35 -45 0 -41 2 -45 25 -45 30 0 31 -14 15 -180 -8
-91 -32 -370 -45 -540 -2 -30 -10 -129 -16 -220 -6 -91 -15 -173 -20 -182 -5
-9 -23 -20 -41 -23 -139 -30 -331 -166 -427 -304 l-24 -33 53 36 c70 48 160
89 245 112 57 16 104 19 255 18 160 0 212 -5 385 -33 339 -56 499 -53 683 10
60 21 147 68 139 76 -3 2 -49 -1 -102 -7 -114 -14 -267 -1 -397 33 -98 26 -92
14 -108 212 -6 77 -20 239 -31 360 -10 121 -24 283 -29 360 -6 77 -14 174 -19
215 -4 41 -6 78 -4 83 2 4 15 7 29 7 22 0 24 4 24 45 0 45 0 45 -35 45 l-35 0
0 90 0 89 62 3 c37 2 63 8 65 15 3 7 -59 58 -136 115 l-140 103 0 42 c-1 32
-8 50 -31 77 -30 33 -31 38 -31 129 -1 52 2 149 6 217 6 99 5 124 -6 131 -37
24 -40 14 -32 -123z m-59 -790 l-3 -83 -42 -3 -43 -3 0 85 0 86 45 0 46 0 -3
-82z m122 -4 l0 -85 -42 3 -43 3 -3 69 c-4 90 -1 96 48 96 l40 0 0 -86z m120
1 l0 -85 -40 0 -40 0 0 85 0 85 40 0 40 0 0 -85z m-126 -361 c12 -11 16 -36
16 -95 l0 -80 -52 3 -53 3 -3 72 c-2 62 0 75 18 93 24 24 53 26 74 4z m-3
-324 c16 -9 19 -22 19 -95 l0 -85 -55 0 -55 0 0 73 c0 103 31 139 91 107z"/>
<path d="M2884 3005 c-9 -25 -15 -47 -13 -49 9 -9 327 -215 354 -229 17 -10
84 -53 150 -97 200 -133 204 -131 25 16 -67 54 -204 168 -306 252 -101 83
-185 152 -188 152 -2 0 -12 -20 -22 -45z"/>
<path d="M4945 2924 c-77 -64 -203 -167 -280 -230 -77 -62 -158 -129 -180
-149 l-40 -36 40 24 c22 13 103 65 180 115 360 233 455 298 455 313 0 22 -20
79 -28 78 -4 0 -70 -52 -147 -115z"/>
<path d="M16190 2844 c18 -47 12 -103 -15 -129 -46 -47 -178 -21 -217 43 -10
15 -18 22 -18 16 0 -23 42 -63 85 -80 61 -23 142 -15 167 16 24 30 22 160 -3
160 -5 0 -4 -12 1 -26z"/>
<path d="M13605 2740 c-11 -18 18 -50 40 -44 34 11 42 24 20 37 -27 15 -53 19
-60 7z"/>
<path d="M2852 2685 c3 -25 7 -48 10 -50 6 -7 591 -216 594 -212 2 1 -135 71
-303 155 l-306 153 5 -46z"/>
<path d="M14232 2713 c4 -24 54 -41 71 -24 10 10 8 15 -7 27 -29 20 -68 19
-64 -3z"/>
<path d="M4823 2555 c-172 -85 -313 -156 -313 -159 0 -4 63 18 230 80 36 14
140 52 232 85 l166 61 4 44 c2 24 1 44 -2 43 -3 0 -146 -70 -317 -154z"/>
<path d="M6432 2243 l3 -418 43 -3 42 -3 0 190 0 191 105 0 105 0 2 -187 3
-188 45 0 45 0 3 418 2 417 -50 0 -50 0 0 -185 0 -185 -105 0 -105 0 0 185 0
185 -45 0 -45 0 2 -417z"/>
<path d="M7276 2628 c-4 -18 -38 -197 -76 -398 -39 -201 -72 -375 -75 -388 -5
-22 -3 -23 37 -20 l43 3 12 60 c7 33 15 70 18 83 5 21 10 22 114 22 l109 0 7
-47 c3 -27 11 -65 16 -85 9 -37 11 -38 55 -38 43 0 46 2 41 23 -3 12 -38 191
-77 397 -39 206 -74 385 -77 398 -5 20 -11 22 -73 22 l-67 0 -7 -32z m113
-289 c21 -107 42 -211 45 -231 l7 -38 -97 0 c-95 0 -96 0 -91 23 3 12 22 108
41 212 44 229 46 239 52 233 2 -3 21 -92 43 -199z"/>
<path d="M7976 2588 c-3 -40 -12 -197 -19 -348 -15 -302 -23 -340 -72 -340
-25 0 -25 -1 -25 -95 l0 -95 40 0 40 0 0 55 0 55 175 0 175 0 0 -55 0 -55 45
0 46 0 -3 98 -3 97 -27 3 -28 3 0 375 0 374 -169 0 -169 0 -6 -72z m244 -348
l0 -340 -106 0 c-106 0 -106 0 -99 23 19 63 24 114 35 375 l13 282 79 0 78 0
0 -340z"/>
<path d="M8682 2243 l3 -418 170 0 170 0 0 40 0 40 -128 3 -128 3 3 147 3 147
103 3 102 3 0 39 0 39 -102 3 -103 3 -3 143 -3 142 131 0 130 0 0 40 0 40
-175 0 -175 0 2 -417z"/>
<path d="M9391 2523 c39 -76 81 -154 93 -174 l20 -37 -92 -234 c-51 -129 -92
-240 -92 -246 0 -7 16 -12 40 -12 47 0 45 -3 140 233 35 86 66 157 69 157 4 0
14 -15 24 -32 14 -27 17 -64 19 -193 l3 -160 43 -3 42 -3 0 156 c0 137 2 161
20 195 11 22 24 40 28 40 4 0 43 -88 87 -195 l78 -195 44 0 c24 0 43 5 43 11
0 6 -40 114 -90 240 -49 125 -90 233 -90 240 0 10 62 132 147 287 l34 62 -48
0 -48 0 -87 -168 c-126 -243 -117 -241 -118 -19 l0 187 -45 0 -45 0 -2 -184
-3 -185 -95 182 -96 182 -48 3 -48 3 73 -138z"/>
<path d="M10396 2543 c-3 -65 -11 -219 -17 -343 -12 -252 -22 -292 -71 -298
l-28 -3 0 -95 0 -94 45 0 45 0 0 55 0 55 170 0 170 0 0 -55 0 -55 45 0 45 0 0
100 0 100 -30 0 -30 0 0 375 0 375 -169 0 -168 0 -7 -117z m252 -300 l-3 -338
-109 -3 c-101 -2 -108 -1 -101 15 19 46 24 94 34 313 6 129 14 261 17 293 l6
57 79 0 79 0 -2 -337z"/>
<path d="M11167 2253 c-42 -225 -77 -414 -77 -420 0 -8 15 -13 39 -13 43 0 41
-3 66 133 l7 37 108 0 108 0 6 -27 c3 -16 10 -54 16 -85 l11 -58 45 0 c24 0
44 4 44 9 0 5 -25 139 -55 297 -31 159 -65 336 -75 394 -29 152 -21 140 -98
140 l-67 0 -78 -407z m192 56 c22 -118 41 -221 41 -227 0 -17 -180 -17 -180 1
-1 32 85 456 91 450 3 -5 25 -105 48 -224z"/>
<path d="M15680 2541 c-37 -118 -74 -282 -96 -417 -19 -123 -31 -464 -16 -449
26 24 107 232 153 389 64 219 76 277 85 407 l7 106 -46 32 c-25 17 -48 31 -51
31 -2 0 -19 -45 -36 -99z"/>
<path d="M2933 2380 c13 -34 15 -35 137 -49 47 -6 145 -18 218 -27 74 -9 135
-14 137 -12 4 4 -481 119 -497 118 -3 0 -1 -14 5 -30z"/>
<path d="M4970 2371 c-36 -10 -145 -35 -242 -56 -97 -22 -175 -41 -173 -43 3
-3 417 44 461 53 17 4 44 41 44 60 0 8 -21 4 -90 -14z"/>
<path d="M13740 2296 c-27 -84 15 -131 115 -130 83 1 155 42 155 88 -1 17 -3
15 -14 -9 -16 -36 -40 -51 -101 -65 -60 -14 -119 2 -142 36 -14 22 -15 33 -6
67 14 52 9 61 -7 13z"/>
<path d="M3060 2151 c5 -11 14 -23 20 -26 10 -6 340 32 349 40 2 3 -82 5 -188
5 -187 0 -191 0 -181 -19z"/>
<path d="M4600 2133 c19 -2 93 -10 163 -19 100 -12 131 -13 142 -4 8 7 15 16
15 21 0 5 -80 8 -177 7 -98 0 -162 -3 -143 -5z"/>
<path d="M13452 2118 c-30 -30 -3 -98 39 -98 24 0 59 34 59 58 0 41 -69 69
-98 40z"/>
<path d="M13282 2040 c-28 -27 -28 -65 0 -84 29 -21 40 -20 66 4 28 27 28 65
0 84 -29 21 -40 20 -66 -4z"/>
<path d="M3287 2003 c-83 -22 -96 -28 -85 -39 11 -12 29 -8 113 22 55 19 102
37 104 40 10 9 -39 1 -132 -23z"/>
<path d="M14235 2006 c-19 -19 -24 -32 -19 -49 9 -30 15 -36 44 -39 24 -3 25
-1 22 47 -4 65 -14 74 -47 41z"/>
<path d="M4658 1965 c51 -20 100 -34 109 -31 33 13 1 24 -177 62 -14 3 17 -11
68 -31z"/>
<path d="M13452 1923 c-11 -26 -19 -49 -17 -51 2 -2 13 1 24 7 24 14 37 53 24
76 -8 14 -14 8 -31 -32z"/>
<path d="M13642 1938 c-37 -37 9 -107 63 -94 32 8 31 21 -1 68 -28 40 -42 46
-62 26z"/>
<path d="M3400 1874 c-61 -32 -86 -54 -61 -54 12 0 141 79 141 86 0 8 -17 2
-80 -32z"/>
<path d="M4500 1876 c0 -5 125 -86 133 -86 4 0 7 4 7 10 0 5 -31 26 -70 45
-38 19 -70 33 -70 31z"/>
<path d="M14164 1856 c-12 -30 1 -71 25 -83 38 -18 42 -7 18 47 -23 51 -34 60
-43 36z"/>
<path d="M13180 1840 c-23 -23 -25 -39 -7 -64 13 -17 16 -15 40 29 15 26 27
49 27 51 0 13 -43 1 -60 -16z"/>
<path d="M13972 1800 c-25 -23 -28 -30 -15 -30 24 0 38 10 52 38 16 30 2 27
-37 -8z"/>
<path d="M3525 1779 c-69 -56 -78 -66 -68 -72 5 -3 36 21 68 53 33 33 57 60
55 60 -3 -1 -27 -19 -55 -41z"/>
<path d="M13646 1773 c-30 -13 -43 -14 -57 -5 -46 29 -75 -4 -64 -72 7 -50 20
-68 62 -89 96 -50 160 21 122 134 -16 48 -19 49 -63 32z"/>
<path d="M14297 1772 c-36 -39 -14 -92 39 -92 45 0 54 22 28 69 -22 42 -44 49
-67 23z"/>
<path d="M4445 1732 c27 -29 53 -52 58 -52 14 0 -1 16 -56 61 l-52 43 50 -52z"/>
<path d="M13053 1724 c-3 -9 -6 -32 -7 -52 -1 -34 1 -37 31 -40 23 -2 35 3 47
20 21 30 20 44 -4 68 -24 24 -58 26 -67 4z"/>
<path d="M13387 1683 c-4 -3 -7 -30 -7 -60 0 -40 4 -53 15 -53 22 0 55 37 55
60 0 11 -9 29 -20 40 -21 21 -32 24 -43 13z"/>
<path d="M14069 1656 c-17 -8 -25 -22 -27 -44 -4 -40 12 -62 45 -62 42 0 63
18 63 54 0 49 -39 74 -81 52z"/>
<path d="M14366 1540 c15 -27 31 -50 36 -50 5 0 13 12 19 26 14 38 -11 74 -52
74 l-30 0 27 -50z"/>
<path d="M14270 1565 c-18 -21 -4 -64 25 -77 14 -6 27 -9 30 -6 5 5 -32 98
-39 98 -2 0 -9 -7 -16 -15z"/>
<path d="M9580 1548 c0 -29 59 -38 80 -13 18 22 5 31 -15 11 -20 -20 -24 -20
-47 1 -16 14 -18 14 -18 1z"/>
<path d="M13637 1522 c-10 -10 -17 -28 -17 -40 0 -28 34 -62 60 -62 25 0 60
34 60 58 0 53 -68 82 -103 44z"/>
<path d="M6816 1483 c-3 -3 -6 -42 -6 -85 l0 -78 66 0 c57 0 67 -3 71 -20 3
-11 9 -20 14 -20 12 0 11 47 -1 55 -5 3 -10 40 -10 81 0 43 -4 74 -10 74 -6 0
-10 -33 -10 -80 l0 -80 -45 0 -45 0 0 74 c0 69 -8 95 -24 79z"/>
<path d="M7060 1483 c-35 -13 -50 -37 -50 -79 0 -23 3 -50 6 -59 9 -23 50 -37
90 -29 47 9 43 23 -4 17 -28 -4 -43 0 -55 12 -26 26 -22 47 8 39 14 -3 39 -1
55 6 25 10 30 18 30 46 0 44 -34 64 -80 47z m48 -22 c8 -4 12 -19 10 -32 -2
-20 -9 -24 -45 -27 -35 -3 -43 0 -43 14 0 39 46 65 78 45z"/>
<path d="M7196 1483 c-3 -3 -6 -42 -6 -85 0 -63 3 -78 15 -78 10 0 15 11 15
35 0 35 0 35 45 35 45 0 45 0 45 -35 0 -25 4 -35 15 -35 13 0 15 14 13 83 -3
83 -20 111 -26 42 -3 -34 -4 -35 -48 -35 -44 0 -44 0 -44 34 0 34 -11 52 -24
39z"/>
<path d="M7550 1368 c0 -79 4 -128 10 -128 6 0 10 16 10 35 0 30 3 35 24 35
41 0 83 20 95 46 18 41 13 83 -14 109 -27 28 -40 30 -75 12 -21 -11 -27 -11
-37 2 -10 13 -12 -9 -13 -111z m111 86 c19 -23 16 -80 -6 -104 -11 -12 -31
-20 -52 -20 l-33 0 0 52 c0 57 19 88 55 88 13 0 29 -7 36 -16z"/>
<path d="M7857 1470 c-72 -57 -21 -176 67 -154 42 10 43 26 2 18 -49 -9 -76
15 -76 67 0 56 45 90 78 57 6 -6 15 -8 19 -4 10 10 -25 36 -48 36 -9 0 -28 -9
-42 -20z"/>
<path d="M8031 1476 c-29 -16 -39 -38 -40 -82 -1 -49 29 -79 79 -79 32 0 47 6
61 24 24 30 25 92 2 120 -23 27 -71 35 -102 17z m79 -26 c38 -38 13 -120 -38
-120 -36 0 -57 26 -57 70 0 65 53 92 95 50z"/>
<path d="M8206 1483 c-3 -3 -6 -42 -6 -85 l0 -78 66 0 c57 0 67 -3 71 -20 3
-11 9 -20 14 -20 12 0 11 47 -1 55 -5 3 -10 40 -10 81 0 43 -4 74 -10 74 -6 0
-10 -33 -10 -80 l0 -80 -45 0 -45 0 0 74 c0 69 -8 95 -24 79z"/>
<path d="M8410 1406 c0 -51 4 -86 10 -86 6 0 10 6 10 14 0 12 80 86 94 86 3 0
6 -22 6 -50 0 -27 5 -50 10 -50 6 0 10 33 10 79 0 44 -4 83 -10 86 -5 3 -10
-1 -10 -11 0 -15 -76 -93 -92 -94 -5 0 -8 22 -8 49 0 28 -4 53 -10 56 -6 4
-10 -25 -10 -79z"/>
<path d="M8628 1483 c-32 -8 -19 -22 15 -16 24 3 39 0 51 -12 25 -25 15 -40
-30 -43 -70 -6 -98 -56 -49 -88 22 -15 29 -15 53 -3 15 7 30 15 35 17 4 2 7
-3 7 -12 0 -9 5 -16 10 -16 6 0 10 30 10 70 0 95 -27 123 -102 103z m77 -93
c10 -16 -14 -49 -40 -56 -24 -6 -55 9 -55 27 0 29 79 54 95 29z"/>
<path d="M8982 1403 l3 -88 29 -3 c15 -2 41 2 57 8 24 10 29 18 29 46 0 38
-21 54 -69 54 -28 0 -31 3 -31 29 0 17 -5 33 -10 36 -7 5 -10 -22 -8 -82z m72
-3 c18 -7 26 -17 26 -34 0 -25 -16 -36 -56 -36 -21 0 -24 5 -24 34 0 19 6 37
13 39 6 3 13 6 14 6 1 1 13 -3 27 -9z"/>
<path d="M9150 1406 c0 -51 4 -86 10 -86 6 0 10 16 10 35 l0 35 50 0 50 0 0
-35 c0 -19 5 -35 10 -35 6 0 10 33 10 79 0 44 -4 83 -10 86 -6 4 -10 -10 -10
-34 l0 -41 -50 0 -50 0 0 34 c0 19 -4 38 -10 41 -6 4 -10 -25 -10 -79z"/>
<path d="M9384 1479 c-58 -29 -56 -131 3 -158 35 -16 57 -14 87 10 22 17 26
29 26 68 0 34 -5 53 -18 64 -24 22 -71 29 -98 16z m78 -26 c23 -20 24 -80 1
-105 -17 -19 -49 -23 -70 -10 -22 14 -33 60 -22 89 17 46 57 57 91 26z"/>
<path d="M9558 1484 c-8 -8 -11 -164 -3 -164 2 0 25 23 51 50 26 28 51 50 55
50 5 0 9 -22 9 -50 0 -38 4 -50 15 -50 12 0 15 15 15 73 0 83 -13 117 -28 76
-10 -26 -75 -89 -92 -89 -5 0 -10 25 -12 56 -2 31 -6 52 -10 48z"/>
<path d="M10071 1476 c-29 -16 -39 -38 -40 -82 -1 -49 29 -79 79 -79 32 0 47
6 61 24 24 30 25 92 2 120 -23 27 -71 35 -102 17z m79 -26 c38 -38 13 -120
-38 -120 -36 0 -57 26 -57 70 0 65 53 92 95 50z"/>
<path d="M10257 1483 c-3 -4 -8 -44 -12 -88 -4 -57 -3 -76 4 -65 6 8 11 31 11
50 1 64 16 65 36 3 12 -33 26 -58 34 -58 7 0 22 26 34 60 17 53 21 57 27 35 4
-14 7 -42 8 -62 1 -24 6 -38 14 -38 11 0 11 16 3 83 -6 45 -15 82 -21 82 -5 0
-21 -30 -34 -67 -13 -38 -27 -68 -31 -68 -4 0 -15 27 -25 60 -18 58 -38 89
-48 73z"/>
<path d="M10520 1483 c-36 -13 -50 -36 -50 -83 0 -68 50 -105 109 -80 98 40
40 199 -59 163z m64 -29 c9 -9 16 -32 16 -54 0 -63 -50 -92 -92 -53 -23 20
-24 80 -1 105 20 22 56 23 77 2z"/>
<path d="M10680 1406 l0 -86 105 0 c98 0 105 -1 105 -20 0 -11 7 -20 15 -20
17 0 21 45 5 55 -5 3 -10 40 -10 81 0 98 -18 96 -22 -3 l-3 -78 -37 -3 -38 -3
0 75 c0 101 -18 109 -22 9 l-3 -78 -37 -3 -38 -3 0 75 c0 41 -4 78 -10 81 -6
4 -10 -25 -10 -79z"/>
<path d="M10970 1406 c0 -51 4 -86 10 -86 6 0 10 6 10 14 0 14 79 86 94 86 3
0 6 -22 6 -50 0 -27 5 -50 10 -50 6 0 10 33 10 79 0 44 -4 83 -10 86 -5 3 -10
0 -10 -7 0 -14 -80 -98 -93 -98 -4 0 -7 22 -7 49 0 28 -4 53 -10 56 -6 4 -10
-25 -10 -79z"/>
<path d="M14530 1462 c0 -41 33 -68 68 -56 37 13 34 28 -11 58 -48 33 -57 33
-57 -2z"/>
<path d="M7403 1473 c27 -4 27 -5 27 -79 0 -95 18 -97 22 -2 3 72 3 73 33 79
19 4 4 7 -40 6 -38 0 -58 -2 -42 -4z"/>
<path d="M8795 1413 c-4 -38 -12 -74 -17 -80 -8 -10 -6 -13 5 -13 19 0 24 14
33 90 l7 61 36 -3 36 -3 3 -72 c4 -99 22 -93 22 7 l0 80 -59 0 -59 0 -7 -67z"/>
<path d="M9840 1400 c0 -47 4 -80 10 -80 6 0 10 32 10 76 l0 75 48 -3 47 -3 3
-72 c4 -99 22 -93 22 7 l0 80 -70 0 -70 0 0 -80z"/>
<path d="M13040 1456 c0 -30 20 -86 30 -86 17 0 40 32 40 55 0 29 -24 55 -51
55 -13 0 -19 -7 -19 -24z"/>
<path d="M13897 1462 c-43 -48 9 -117 68 -90 33 15 42 51 21 83 -20 30 -65 34
-89 7z"/>
<path d="M14194 1405 c-18 -19 -23 -31 -19 -48 14 -46 68 -62 98 -29 24 26 21
68 -5 86 -31 22 -45 20 -74 -9z"/>
<path d="M14705 1374 c-9 -9 -15 -28 -13 -43 2 -21 10 -28 40 -35 27 -7 41 -6
52 4 23 18 20 56 -6 74 -29 20 -52 20 -73 0z"/>
<path d="M14857 1340 c8 -29 25 -37 21 -9 -1 12 -8 24 -15 26 -7 3 -9 -3 -6
-17z"/>
<path d="M14930 1343 c8 -3 19 -11 23 -17 6 -7 7 -6 4 4 -2 8 -12 16 -23 17
-13 2 -15 1 -4 -4z"/>
<path d="M13397 1304 c-18 -19 -6 -33 23 -27 19 3 30 1 30 -6 0 -6 7 -11 16
-11 11 0 14 -5 9 -17 -5 -15 -4 -16 7 -5 21 21 -10 66 -48 70 -16 2 -33 0 -37
-4z"/>
<path d="M15087 1269 c-4 -16 -3 -18 9 -8 7 6 11 15 8 20 -8 13 -11 11 -17
-12z"/>
<path d="M11302 1130 c-110 -56 -219 -203 -266 -359 -23 -79 -12 -74 14 6 34
105 89 202 151 264 61 61 146 109 194 109 117 0 299 -292 355 -569 40 -203 36
-368 -15 -515 -13 -39 -18 -63 -11 -53 8 10 24 55 37 100 42 150 27 413 -33
592 -51 153 -123 286 -201 372 -85 92 -126 102 -225 53z"/>
<path d="M10190 761 c-38 -4 -12 -7 85 -7 252 -2 415 -59 615 -216 67 -53 70
-54 25 -12 -108 102 -236 170 -390 209 -98 25 -248 37 -335 26z"/>
<path d="M10084 729 c-13 -15 -19 -38 -20 -87 l-2 -67 7 60 c9 74 18 94 45
105 15 6 16 9 5 9 -9 1 -24 -8 -35 -20z"/>
<path d="M3649 670 c-87 -11 -220 -46 -296 -81 -35 -15 -63 -29 -63 -32 0 -2
32 5 71 15 165 41 375 34 681 -24 292 -55 516 -50 642 14 43 22 118 79 113 85
-2 2 -33 -8 -68 -21 -86 -32 -203 -50 -291 -44 -40 3 -145 22 -233 41 -241 55
-385 67 -556 47z"/>
<path d="M14340 380 c-19 -36 6 -50 94 -57 98 -8 104 12 13 43 -34 11 -70 24
-79 28 -12 5 -20 1 -28 -14z"/>
<path d="M13674 324 c-9 -36 12 -51 81 -59 110 -14 128 19 28 53 -38 12 -76
25 -85 28 -13 5 -19 -1 -24 -22z"/>
</g>
</svg>
